<?xml version="1.0" encoding="utf-8"?>
<!-- Generator: Adobe Illustrator 18.0.0, SVG Export Plug-In . SVG Version: 6.00 Build 0)  -->
<!DOCTYPE svg PUBLIC "-//W3C//DTD SVG 1.1//EN" "http://www.w3.org/Graphics/SVG/1.1/DTD/svg11.dtd">
<svg version="1.1" id="Layer_1" xmlns="http://www.w3.org/2000/svg" xmlns:xlink="http://www.w3.org/1999/xlink" x="0px" y="0px"
	 viewBox="0 580 1200 442" enable-background="new 0 580 1200 442" xml:space="preserve">
<g>
	<polygon fill="#BFAC88" points="131.9,929.2 121.4,925.1 121.4,933.2 	"/>
</g>
<g>
	<path fill="#BFAC88" d="M122.6,936.5v-10.1l13.4,5.3L122.6,936.5z M124.2,928.4v5.7l7.3-2.8L124.2,928.4z"/>
</g>
<g>
	<rect x="3.1" y="930.4" fill="#BFAC88" width="130.4" height="1.6"/>
</g>
<g>
	<rect x="-133" y="497.5" fill="none" width="1296" height="570.2"/>
</g>
<g>
	<path fill="#FFFFFF" d="M412.9,854.7v9.7c0,8.9,7.3,15.8,15.8,15.8h207.4c8.9,0,15.8-7.3,15.8-15.8v-9.7c0-8.9-7.3-15.8-15.8-15.8
		H428.7C420.2,838.5,412.9,845.8,412.9,854.7z"/>
</g>
<g>
	<path fill="#BFAC88" d="M636.1,880.6H428.7c-9.3,0-16.6-7.7-16.6-16.6v-9.7c0-9.3,7.7-16.6,16.6-16.6h207.4
		c9.3,0,16.6,7.7,16.6,16.6v9.7C652.7,873.3,645.4,880.6,636.1,880.6z M428.7,839.3c-8.5,0-15,6.9-15,15v9.7c0,8.5,6.9,15,15,15
		h207.4c8.5,0,15-6.9,15-15v-9.7c0-8.5-6.9-15-15-15H428.7z"/>
</g>
<g>
	<path fill="#EDE7DC" d="M412.9,736v9.7c0,8.9,7.3,15.8,15.8,15.8h207.4c8.9,0,15.8-7.3,15.8-15.8V736c0-8.9-7.3-15.8-15.8-15.8
		H428.7C420.2,719.8,412.9,727.1,412.9,736z"/>
</g>
<g>
	<path fill="#BFAC88" d="M636.1,762.3H428.7c-9.3,0-16.6-7.7-16.6-16.6V736c0-9.3,7.7-16.6,16.6-16.6h207.4
		c9.3,0,16.6,7.7,16.6,16.6v9.7C652.7,754.6,645.4,762.3,636.1,762.3z M428.7,720.6c-8.5,0-15,6.9-15,15v9.7c0,8.5,6.9,15,15,15
		h207.4c8.5,0,15-6.9,15-15v-9.7c0-8.5-6.9-15-15-15H428.7z"/>
</g>
<g>
	<path fill="#4C97D6" d="M412.9,674.5v11.7c0,8.9,7.3,15.8,15.8,15.8h207.4c8.9,0,15.8-7.3,15.8-15.8v-11.7
		c0-8.9-7.3-15.8-15.8-15.8H428.7C420.2,658.7,412.9,665.5,412.9,674.5z"/>
</g>
<g>
	<path fill="#BFAC88" d="M636.1,702.8H428.7c-9.3,0-16.6-7.7-16.6-16.6v-11.7c0-9.3,7.7-16.6,16.6-16.6h207.4
		c9.3,0,16.6,7.7,16.6,16.6v11.7C652.7,695.5,645.4,702.8,636.1,702.8z M428.7,659.5c-8.5,0-15,6.9-15,15v11.7c0,8.5,6.9,15,15,15
		h207.4c8.5,0,15-6.9,15-15v-11.7c0-8.5-6.9-15-15-15H428.7z"/>
</g>
<g>
	<path fill="#EDE7DC" d="M412.9,795.1v9.7c0,8.9,7.3,15.8,15.8,15.8h207.4c8.9,0,15.8-7.3,15.8-15.8v-9.7c0-8.9-7.3-15.8-15.8-15.8
		H428.7C420.2,779.3,412.9,786.2,412.9,795.1z"/>
</g>
<g>
	<path fill="#BFAC88" d="M636.1,821.5H428.7c-9.3,0-16.6-7.7-16.6-16.6v-9.7c0-9.3,7.7-16.6,16.6-16.6h207.4
		c9.3,0,16.6,7.7,16.6,16.6v9.7C652.7,814.2,645.4,821.5,636.1,821.5z M428.7,780.2c-8.5,0-15,6.9-15,15v9.7c0,8.5,6.9,15,15,15
		h207.4c8.5,0,15-6.9,15-15v-9.7c0-8.5-6.9-15-15-15H428.7z"/>
</g>
<g>
	<polygon fill="#BFAC88" points="236.8,989.5 226.2,985.5 226.2,993.6 	"/>
</g>
<g>
	<path fill="#BFAC88" d="M227.5,996.8v-10.1l13.4,5.3L227.5,996.8z M229.1,988.7v5.7l7.3-2.8L229.1,988.7z"/>
</g>
<g>
	<rect x="5.1" y="990.8" fill="#BFAC88" width="233.7" height="1.6"/>
</g>
<g>
	<path fill="#E5DECD" d="M2.7,913v9.7c0,8.9,7.3,15.8,15.8,15.8h207.4c8.9,0,15.8-7.3,15.8-15.8V913c0-8.9-7.3-15.8-15.8-15.8H18.5
		C9.6,896.8,2.7,904.1,2.7,913z"/>
</g>
<g>
	<path fill="#FFFFFF" d="M18.5,939.7c-0.8,0-2,0-2.8-0.4l0.4-3.2c0.8,0,1.6,0,2.4,0.4h2v3.2H18.5L18.5,939.7z M225.8,939.7h-3.2
		v-3.2h3.2c0.4,0,0.8,0,1.6,0l0.4,3.2C227.1,939.7,226.2,939.7,225.8,939.7z M219.4,939.7h-4.9v-3.2h4.9V939.7z M211.3,939.7h-4.9
		v-3.2h4.9V939.7z M203.6,939.7h-4.9v-3.2h4.9V939.7z M195.5,939.7h-4.9v-3.2h4.9V939.7z M187.4,939.7h-4.9v-3.2h4.9V939.7z
		 M179.7,939.7h-4.9v-3.2h4.9V939.7z M171.6,939.7h-4.9v-3.2h4.9V939.7z M163.9,939.7H159v-3.2h4.9V939.7z M155.8,939.7h-4.9v-3.2
		h4.9V939.7z M147.7,939.7h-4.9v-3.2h4.9V939.7z M140,939.7h-4.9v-3.2h4.9V939.7z M131.9,939.7H127v-3.2h4.9V939.7z M123.8,939.7
		h-4.9v-3.2h4.9V939.7z M116.1,939.7h-4.9v-3.2h4.9V939.7z M108,939.7h-4.9v-3.2h4.9V939.7z M99.9,939.7H95v-3.2h4.9V939.7z
		 M92.2,939.7h-4.9v-3.2h4.9V939.7z M84.1,939.7h-4.9v-3.2h4.9V939.7z M76,939.7h-4.9v-3.2H76V939.7z M68.3,939.7h-4.9v-3.2h4.9
		V939.7z M60.2,939.7h-4.9v-3.2h4.9V939.7z M52.1,939.7h-4.9v-3.2h4.9V939.7z M44.4,939.7h-4.9v-3.2h4.9V939.7z M36.3,939.7h-4.9
		v-3.2h4.9V939.7z M28.6,939.7h-4.9v-3.2h4.9V939.7z M231.1,938.9l-0.8-3.2c1.2-0.4,2.8-1.2,4-2l1.6,2.4
		C234.3,937.7,232.7,938.5,231.1,938.9z M12,938.5c-1.6-0.8-3.2-1.6-4.5-2.4l2-2.4c1.2,0.8,2.4,1.6,3.6,2L12,938.5z M238.4,934.5
		l-2.4-2c0.8-1.2,2-2,2.4-3.6l2.8,1.6C240.4,931.6,239.6,933.2,238.4,934.5z M5.1,933.6c-1.2-1.2-2-2.8-2.8-4.5l2.8-1.2
		c0.4,1.2,1.2,2.4,2.4,3.6L5.1,933.6z M242.4,927.2l-3.2-0.8c0.4-1.2,0.4-2.4,0.4-3.6v-0.4h3.2v0.4
		C243.3,923.9,242.9,925.5,242.4,927.2z M1.1,926c-0.4-1.2-0.4-2.4-0.4-3.6v-1.6h3.2v1.6c0,0.8,0,2,0.4,2.8L1.1,926z M243.3,918.7
		H240v-4.9h3.2V918.7z M3.9,917.4H0.7v-5.3h3.2V917.4z M240,911c0-1.6-0.4-2.8-1.2-4l2.8-1.2c0.8,1.6,1.2,3.2,1.6,4.9L240,911z
		 M4.3,909.3l-2.8-0.8c0.4-1.6,1.2-3.2,2-4.9l2.8,1.6C5.5,906.5,4.7,908.1,4.3,909.3z M237.2,904.5c-0.8-1.2-2-2-2.8-3.2l2-2.4
		c1.2,1.2,2.8,2.4,3.6,3.6L237.2,904.5z M8,903.3l-2.4-2.4c1.2-1.2,2.4-2.4,4-3.2l1.6,2.8C10,901.2,8.8,902.1,8,903.3z M231.9,900
		c-1.2-0.8-2.8-1.2-4-1.2l0.4-3.2c1.6,0.4,3.2,0.8,4.9,1.6L231.9,900z M13.6,899.2l-1.2-2.8c1.6-0.4,3.2-0.8,5.3-0.8v3.2
		C16.5,898.4,15.2,898.8,13.6,899.2z M224.6,898.4h-4.5v-3.2h4.9v3.2H224.6z M216.9,898.4h-4.9v-3.2h4.9V898.4z M208.8,898.4H204
		v-3.2h4.9V898.4z M200.7,898.4h-4.9v-3.2h4.9V898.4z M193,898.4h-4.9v-3.2h4.9V898.4z M184.9,898.4h-4.9v-3.2h4.9V898.4z
		 M176.8,898.4H172v-3.2h4.9V898.4z M169.1,898.4h-4.9v-3.2h4.9V898.4z M161,898.4h-4.9v-3.2h4.9V898.4z M153.3,898.4h-4.9v-3.2h4.9
		V898.4z M145.2,898.4h-4.9v-3.2h4.9V898.4z M137.1,898.4h-4.9v-3.2h4.9V898.4z M129.5,898.4h-4.9v-3.2h4.9V898.4z M121.4,898.4
		h-4.9v-3.2h4.9V898.4z M113.3,898.4h-4.9v-3.2h4.9V898.4z M105.6,898.4h-4.9v-3.2h4.9V898.4z M97.5,898.4h-4.9v-3.2h4.9V898.4z
		 M89.4,898.4h-4.9v-3.2h4.9V898.4z M81.7,898.4h-4.9v-3.2h4.9V898.4z M73.6,898.4h-4.9v-3.2h4.9V898.4z M65.5,898.4h-4.9v-3.2h4.9
		V898.4z M57.8,898.4h-4.9v-3.2h4.9V898.4z M49.7,898.4h-4.9v-3.2h4.9V898.4z M42,898.4h-4.9v-3.2H42V898.4z M33.9,898.4H29v-3.2
		h4.9V898.4z M25.8,898.4h-4.9v-3.2h4.9V898.4z"/>
</g>
<g>
	<path fill="#E5DECD" d="M2.7,674.5v9.7c0,8.9,7.3,15.8,15.8,15.8h207.4c8.9,0,15.8-7.3,15.8-15.8v-9.7c0-8.9-7.3-15.8-15.8-15.8
		h-207C10,658.7,2.7,665.5,2.7,674.5z"/>
</g>
<g>
	<path fill="#BFAC88" d="M225.8,700.8h-207c-9.3,0-16.6-7.7-16.6-16.6v-9.7c0-9.3,7.7-16.6,16.6-16.6h207.4
		c9.3,0,16.6,7.7,16.6,16.6v9.7C242.9,693.1,235.2,700.8,225.8,700.8z M18.9,659.5c-8.5,0-15,6.9-15,15v9.7c0,8.5,6.9,15,15,15
		h207.4c8.5,0,15-6.9,15-15v-9.7c0-8.5-6.9-15-15-15H18.9z"/>
</g>
<g>
	<path fill="#E5DECD" d="M2.7,793.1v9.7c0,8.9,7.3,15.8,15.8,15.8h207.4c8.9,0,15.8-7.3,15.8-15.8v-9.7c0-8.9-7.3-15.8-15.8-15.8
		h-207C10,777.3,2.7,784.2,2.7,793.1z"/>
</g>
<g>
	<path fill="#BFAC88" d="M225.8,819.4h-207c-9.3,0-16.6-7.7-16.6-16.6v-9.7c0-9.3,7.7-16.6,16.6-16.6h207.4
		c9.3,0,16.6,7.7,16.6,16.6v9.7C242.9,811.7,235.2,819.4,225.8,819.4z M18.9,778.1c-8.5,0-15,6.9-15,15v9.7c0,8.5,6.9,15,15,15
		h207.4c8.5,0,15-6.9,15-15v-9.7c0-8.5-6.9-15-15-15H18.9z"/>
</g>
<g>
	<path fill="#E5DECD" d="M2.7,852.2v9.7c0,8.9,7.3,15.8,15.8,15.8h207.4c8.9,0,15.8-7.3,15.8-15.8v-9.7c0-8.9-7.3-15.8-15.8-15.8
		h-207C10,836.4,2.7,843.7,2.7,852.2z"/>
</g>
<g>
	<path fill="#BFAC88" d="M225.8,878.6h-207c-9.3,0-16.6-7.7-16.6-16.6v-9.7c0-9.3,7.7-16.6,16.6-16.6h207.4
		c9.3,0,16.6,7.7,16.6,16.6v9.7C242.9,871.3,235.2,878.6,225.8,878.6z M18.9,837.3c-8.5,0-15,6.9-15,15v9.7c0,8.5,6.9,15,15,15
		h207.4c8.5,0,15-6.9,15-15v-9.7c0-8.5-6.9-15-15-15H18.9z"/>
</g>
<g>
	<path fill="#EDE7DC" d="M2.7,733.6v9.7c0,8.9,7.3,15.8,15.8,15.8h207.4c8.9,0,15.8-7.3,15.8-15.8v-9.7c0-8.9-7.3-15.8-15.8-15.8
		h-207C10,717.8,2.7,725.1,2.7,733.6z"/>
</g>
<g>
	<path fill="#BFAC88" d="M225.8,759.9h-207c-9.3,0-16.6-7.7-16.6-16.6v-9.7c0-9.3,7.7-16.6,16.6-16.6h207.4
		c9.3,0,16.6,7.7,16.6,16.6v9.7C242.9,752.6,235.2,759.9,225.8,759.9z M18.9,718.6c-8.5,0-15,6.9-15,15v9.7c0,8.5,6.9,15,15,15
		h207.4c8.5,0,15-6.9,15-15v-9.7c0-8.5-6.9-15-15-15H18.9L18.9,718.6z"/>
</g>
<g>
	<ellipse fill="#4C97D6" cx="941.9" cy="771.7" rx="119.5" ry="28.8"/>
</g>
<g>
	<path fill="#E5DECD" d="M941.9,801.2c-67.6,0-120.3-13-120.3-29.6c0-16.6,53.1-29.6,120.3-29.6c67.6,0,120.3,13,120.3,29.6
		C1062.2,788.3,1009.1,801.2,941.9,801.2z M941.9,743.3c-64.4,0-118.7,13-118.7,27.9c0,15,54.3,27.9,118.7,27.9s118.7-13,118.7-27.9
		C1060.5,756.3,1006.3,743.3,941.9,743.3z"/>
</g>
<g>
	<ellipse fill="#4C97D6" cx="942.3" cy="686.6" rx="120.3" ry="28.8"/>
</g>
<g>
	<path fill="#E5DECD" d="M942.3,716.2c-67.6,0-120.7-13-120.7-29.6S874.6,657,942.3,657s120.7,13,120.7,29.6
		S1010.3,716.2,942.3,716.2z M942.3,658.7c-64.8,0-119.5,13-119.5,27.9s54.7,27.9,119.5,27.9s119.5-13,119.5-27.9
		S1007.1,658.7,942.3,658.7z"/>
</g>
<g>
	<ellipse fill="#FFFFFF" cx="941.9" cy="854.3" rx="119.5" ry="26.7"/>
</g>
<g>
	<path fill="#E5DECD" d="M941.9,881.4c-67.6,0-120.3-12.1-120.3-27.5s53.1-27.5,120.3-27.5c67.6,0,120.3,12.1,120.3,27.5
		S1009.1,881.4,941.9,881.4z M941.9,828.3c-64.4,0-118.7,11.7-118.7,25.9s54.3,25.9,118.7,25.9s118.7-11.7,118.7-25.9
		S1006.3,828.3,941.9,828.3z"/>
</g>
<text transform="matrix(1 0 0 1 70.3221 688.2905)" font-family="'arial'" font-size="24.2997">Context</text>
<text transform="matrix(1 0 0 1 417.2677 632.942)" font-family="'arial'" font-size="24.2997">Realisatie</text>
<text transform="matrix(1 0 0 1 501.6431 687.9529)" fill="#FFFFFF" font-family="'arial'" font-size="24.2997">Actor</text>
<text transform="matrix(1 0 0 1 483.081 749.0394)" font-family="'arial'" font-size="24.2997">Activiteit</text>
<text transform="matrix(1 0 0 1 494.5547 808.1019)" fill="#4C97D6" font-family="'arial'" font-size="24.2997">Begrip</text>
<text transform="matrix(1 0 0 1 479.367 867.8378)" fill="#4C97D6" font-family="'arial'" font-size="24.2997">Uitkomst</text>
<text transform="matrix(1 0 0 1 824.2888 632.942)" font-family="'arial'" font-size="24.2997">Richtinggevers</text>
<text transform="matrix(1 0 0 1 844.537 693.6888)" fill="#FFFFFF" font-family="'arial'" font-size="24.2997">Randvoorwaarde</text>
<text transform="matrix(1 0 0 1 896.1736 780.4257)" font-family="'arial'" font-size="24.2997">Conditie</text>
<text transform="matrix(1 0 0 1 881.6632 863.1129)" fill="#4C97D6" font-family="'arial'" font-size="24.2997">Doelstelling</text>
<text transform="matrix(1 0 0 1 -0.8875 632.942)" font-family="'arial'" font-size="24.2997">Groeperingen, relaties</text>
<text transform="matrix(1 0 0 1 12.2744 745.3254)" font-family="'arial'" font-size="20.2497">Samengestelde activiteit</text>
<text transform="matrix(1 0 0 1 80.7849 807.4267)" fill="#4C97D6" font-family="'arial'" font-size="24.2997">Praktijk</text>
<text transform="matrix(1 0 0 1 88.5465 864.8011)" font-family="'arial'" font-size="24.2997">Case</text>
<text transform="matrix(1 0 0 1 274.5089 916.4377)" font-family="'arial'" font-size="20.2497">Correspondeert met een element</text>
<text transform="matrix(1 0 0 1 274.5089 940.7357)" font-family="'arial'" font-size="20.2497">in een andere structuur</text>
<text transform="matrix(1 0 0 1 274.5089 996.4238)" font-family="'arial'" font-size="20.2497">Heeft een relatie met</text>
</svg>
